Coordinates
version=1
nRows=16
nColumns=42
inDegrees=yes

Units are S.I. units (second, meters, Newtons, ...)
If the header above contains a line with 'inDegrees', this indicates whether rotational values are in degrees (yes) or radians (no).

endheader
time	pelvis_tilt	pelvis_list	pelvis_rotation	pelvis_tx	pelvis_ty	pelvis_tz	hip_flexion_r	hip_adduction_r	hip_rotation_r	knee_angle_r	knee_adduction_r	knee_angle_r_beta	ankle_angle_r	subtalar_angle_r	mtp_angle_r	hip_flexion_l	hip_adduction_l	hip_rotation_l	knee_angle_l	knee_adduction_l	knee_angle_l_beta	ankle_angle_l	subtalar_angle_l	mtp_angle_l	lumbar_extension	lumbar_bending	lumbar_rotation	arm_flex_r	arm_add_r	arm_rot_r	elbow_flex_r	pro_sup_r	wrist_flex_r	wrist_dev_r	arm_flex_l	arm_add_l	arm_rot_l	elbow_flex_l	pro_sup_l	wrist_flex_l	wrist_dev_l
      0.09000000	     -4.56779203	     -2.24331550	     -2.42112206	     -0.96484487	      0.93254138	     -0.23063568	    -10.70736302	      5.40496759	     -3.88124511	     18.98694474	     -2.28946476	      0.33138470	     16.17521644	     -1.33862112	     -9.18930366	     34.08426725	     -2.29242491	    -10.92073067	     14.87856691	     -2.12471471	      0.25967998	     -0.54347280	     -3.24409873	     -9.18930366	     -8.24683968	      1.51543602	      9.03506429	      3.18574181	    -10.19941106	     -1.39216568	     39.01864441	     90.00000001	      0.00000000	      0.00000000	     -5.04772604	     -6.09007882	    -16.08485245	     22.31425014	     90.00000001	      0.00000000	      0.00000000
      0.10000000	     -4.49382224	     -1.70356932	     -2.40016578	     -0.94858811	      0.93165858	     -0.23156284	    -10.92902006	      4.69290005	     -3.74055372	     20.59097474	     -2.38590856	      0.35938031	     14.96147423	     -1.85076005	     -9.16518528	     34.49354525	     -1.49189769	    -11.17079493	     17.00044686	     -2.76213679	      0.29671377	     -1.62157653	     -4.53710329	     -9.16518528	     -8.24544488	      0.76253060	      8.86159478	      3.13066212	     -9.91398674	     -1.53214366	     38.76002889	     90.00000001	      0.00000000	      0.00000000	     -5.24837100	     -6.24140260	    -16.19675754	     21.82908722	     90.00000001	      0.00000000	      0.00000000
      0.11000000	     -4.60111378	     -1.14401155	     -2.29578165	     -0.93251327	      0.93119333	     -0.23259413	    -10.74586711	      4.00921446	     -3.16063575	     22.54611014	     -2.29120645	      0.39350386	     13.13700641	     -3.60410563	     -9.04725946	     34.80390130	     -0.54331640	     -9.69780000	     18.93649869	     -2.98197318	      0.33050425	     -3.75560802	     -8.48326193	     -9.04725946	     -8.05087182	     -0.01053181	      8.67720037	      3.18719650	     -9.42249553	     -2.35491126	     37.90101167	     90.00000001	      0.00000000	      0.00000000	     -5.03494862	     -6.33833187	    -16.84158134	     20.67185016	     90.00000001	      0.00000000	      0.00000000
      0.12000000	     -4.46988254	     -0.49761784	     -2.18082735	     -0.91614172	      0.93128686	     -0.23372622	    -10.51755666	      3.17915066	     -3.32128240	     24.93055873	     -2.38462092	      0.43512033	     10.98832164	     -4.43269963	     -9.01950079	     35.04316429	      0.41826000	     -9.49391796	     21.32565835	     -3.51024442	      0.37220295	     -4.62395911	     -9.85142370	     -9.01950079	     -8.11480665	     -0.88113066	      8.43839572	      2.98873657	     -9.12529782	     -2.45282847	     37.58622031	     90.00000001	      0.00000000	      0.00000000	     -5.12682934	     -6.48352419	    -17.00812692	     20.26594894	     90.00000001	      0.00000000	      0.00000000
      0.13000000	     -4.44947731	      0.07559259	     -2.00574829	     -0.90002142	      0.93191512	     -0.23490408	    -10.01861761	      2.46369899	     -2.74331055	     27.51614750	     -2.10795166	      0.48024737	      8.10469743	     -6.87870077	     -8.92304356	     35.01360969	      1.40119550	     -7.62698657	     23.25216385	     -3.39251202	      0.40582682	     -6.24905245	    -13.53721795	     -8.92304356	     -8.08385452	     -1.64776587	      8.11602684	      2.95138457	     -8.67149575	     -3.08368895	     36.74006619	     90.00000001	      0.00000000	      0.00000000	     -4.87504341	     -6.57620142	    -17.59812484	     19.29706448	     90.00000001	      0.00000000	      0.00000000
      0.14000000	     -4.29354998	      0.66027844	     -1.85955017	     -0.88380716	      0.93300549	     -0.23608993	     -9.37593665	      1.69666985	     -2.61970468	     30.43661178	     -1.95458121	      0.53121909	      4.83275009	     -8.85460787	     -8.84090494	     34.83487515	      2.32227239	     -6.71762535	     25.18297085	     -3.45767531	      0.43952576	     -6.70217587	    -15.19650082	     -8.84090494	     -8.20494240	     -2.42057146	      7.81625480	      2.75871705	     -8.31599365	     -3.43728920	     36.16993807	     90.00000001	      0.00000000	      0.00000000	     -4.74232173	     -6.66599907	    -18.09232620	     18.74164785	     90.00000001	      0.00000000	      0.00000000
      0.15000000	     -4.10553563	      1.18899922	     -1.76234207	     -0.86768630	      0.93447825	     -0.23724439	     -8.53900899	      0.95950301	     -2.50360970	     33.55602005	     -1.76748648	      0.58566303	      1.23881544	    -10.99400414	     -8.76224171	     34.45801439	      3.14233923	     -6.07503038	     26.83642023	     -3.50345540	      0.46838389	     -6.60348751	    -16.21798576	     -8.76224171	     -8.36936649	     -3.11033347	      7.54450155	      2.56086922	     -7.97268108	     -3.74454564	     35.53955651	     90.00000001	      0.00000000	      0.00000000	     -4.59036340	     -6.75462202	    -18.52810223	     18.20119653	     90.00000001	      0.00000000	      0.00000000
      0.16000000	     -3.95959944	      1.64261193	     -1.64900092	     -0.85175549	      0.93619384	     -0.23840752	     -7.42660619	      0.30302246	     -2.66904922	     36.82116185	     -1.72910354	      0.64265051	     -2.32369553	    -12.80415654	     -8.70886224	     33.97855047	      3.85456676	     -5.79028195	     28.20013369	     -3.58204856	      0.49218518	     -6.11561512	    -16.62807289	     -8.70886224	     -8.49541948	     -3.68861942	      7.23554522	      2.30206704	     -7.72101889	     -3.92804743	     34.94370484	     90.00000001	      0.00000000	      0.00000000	     -4.43457695	     -6.79622847	    -18.79584604	     17.82663749	     90.00000001	      0.00000000	      0.00000000
      0.17000000	     -3.69876364	      2.12858466	     -1.65961239	     -0.83597032	      0.93827783	     -0.23952314	     -6.26687150	     -0.44406927	     -2.80877426	     40.12105725	     -1.73321707	      0.70024455	     -4.90347785	    -13.48076339	     -8.69653722	     33.15761492	      4.50143966	     -5.84150650	     29.15541987	     -3.62454210	      0.50885807	     -5.14846059	    -16.92658471	     -8.69653722	     -8.77030795	     -4.28378104	      6.99799548	      1.97885120	     -7.53009944	     -3.95289011	     34.57379400	     90.00000001	      0.00000000	      0.00000000	     -4.29154863	     -6.83508381	    -18.84504000	     17.72633257	     90.00000001	      0.00000000	      0.00000000
      0.18000000	     -3.75009561	      2.32538994	     -1.58612482	     -0.82056255	      0.94029711	     -0.24037413	     -4.63695682	     -0.75167526	     -2.84715753	     43.33674480	     -1.75846430	      0.75636888	     -8.21771091	    -16.11517922	     -8.63577767	     32.58562933	      4.85024394	     -6.09465046	     29.88060527	     -3.80811234	      0.52151494	     -4.17539545	    -16.69726925	     -8.63577767	     -8.66871532	     -4.55791028	      6.70312640	      1.79977216	     -7.22772731	     -4.15685608	     33.61767501	     90.00000001	      0.00000000	      0.00000000	     -4.04749510	     -6.90767769	    -19.14970042	     17.37743612	     90.00000001	      0.00000000	      0.00000000
      0.19000000	     -3.74210784	      2.53457069	     -1.58686969	     -0.80538543	      0.94250120	     -0.24118860	     -2.92993616	     -1.08829029	     -3.26115931	     46.46759729	     -2.14197696	      0.81101257	     -9.91826229	    -17.02842843	     -8.59933284	     31.81454361	      5.16986133	     -6.43784718	     30.36017279	     -3.98283999	      0.52988498	     -3.08650367	    -16.47285849	     -8.59933284	     -8.66924545	     -4.83097001	      6.46979457	      1.52217374	     -7.01470972	     -4.19100042	     33.05443741	     90.00000001	      0.00000000	      0.00000000	     -3.81869509	     -6.92730148	    -19.30568139	     17.35985013	     90.00000001	      0.00000000	      0.00000000
      0.20000000	     -3.63892499	      2.68447210	     -1.64541064	     -0.79033070	      0.94497519	     -0.24189580	     -1.26281397	     -1.38058064	     -3.65206016	     49.41087845	     -2.51684938	      0.86238252	    -10.51043419	    -17.61326561	     -8.58782183	     30.75906385	      5.35917736	     -6.71095029	     30.53590097	     -3.99322933	      0.53295201	     -1.98192712	    -16.42978976	     -8.58782183	     -8.77325559	     -5.02216885	      6.27202836	      1.19500712	     -6.87974676	     -4.17714626	     32.65047017	     90.00000001	      0.00000000	      0.00000000	     -3.60235846	     -6.90810408	    -19.33003537	     17.42872651	     90.00000001	      0.00000000	      0.00000000
      0.21000000	     -3.53010821	      2.62137437	     -1.70437077	     -0.77553924	      0.94762539	     -0.24249435	      0.43417984	     -1.37423814	     -4.15199137	     52.04966197	     -3.07842051	      0.90843798	    -10.41350833	    -18.01089017	     -8.57486133	     29.64425392	      5.30544394	     -7.04733276	     30.57405072	     -4.04154961	      0.53361785	     -1.03735013	    -16.04961833	     -8.57486133	     -8.93169707	     -4.94216301	      5.96053786	      0.92714704	     -6.81666312	     -4.16098108	     32.32598522	     90.00000001	      0.00000000	      0.00000000	     -3.35105805	     -6.83079001	    -19.29567161	     17.64767506	     90.00000001	      0.00000000	      0.00000000
      0.22000000	     -3.86221769	      2.61365396	     -1.71471190	     -0.76091537	      0.94981137	     -0.24305065	      2.76406552	     -1.47855470	     -5.30124006	     54.57942731	     -4.00357693	      0.95259071	     -9.99531992	    -18.32613062	     -8.55053223	     28.96555587	      5.32755493	     -7.37559702	     30.49871294	     -4.14361304	      0.53230296	      0.30319565	    -15.38525908	     -8.55053223	     -8.48750691	     -4.93672833	      5.70352008	      0.59953584	     -6.62294000	     -4.09136073	     31.54673547	     90.00000001	      0.00000000	      0.00000000	     -3.15528356	     -6.85645672	    -19.26362119	     17.83775251	     90.00000001	      0.00000000	      0.00000000
      0.23000000	     -3.91856010	      2.45206488	     -1.78080476	     -0.74640129	      0.95243224	     -0.24349845	      4.74807738	     -1.39397139	     -6.22674422	     56.69731918	     -4.81165528	      0.98955490	     -9.02262794	    -18.52560961	     -8.52778775	     27.89825146	      5.14458720	     -7.56670875	     30.27762558	     -4.10399016	      0.52844426	      1.34172643	    -14.84078615	     -8.52778775	     -8.40824569	     -4.74035550	      5.46278358	      0.31997323	     -6.53838386	     -4.05468906	     30.98399493	     90.00000001	      0.00000000	      0.00000000	     -2.87074612	     -6.80206183	    -19.17306304	     18.13705708	     90.00000001	      0.00000000	      0.00000000
      0.24000000	     -4.00647345	      2.20868612	     -1.81885312	     -0.73203095	      0.95506528	     -0.24392848	      6.76758492	     -1.21854062	     -7.25835866	     58.48836652	     -5.65832080	      1.02081457	     -7.89308184	    -18.61854836	     -8.48929878	     26.81627386	      4.89134792	     -7.64803744	     29.94657028	     -4.03467292	      0.52266625	      2.28254058	    -14.23465715	     -8.48929878	     -8.28981009	     -4.43526433	      5.17541511	      0.09826786	     -6.46811874	     -4.02780678	     30.32714969	     90.00000001	      0.00000000	      0.00000000	     -2.59203772	     -6.74833403	    -18.93198736	     18.53163850	     90.00000001	      0.00000000	      0.00000000
